<svg xmlns="http://www.w3.org/2000/svg" xmlns:xlink="http://www.w3.org/1999/xlink" width="500" zoomAndPan="magnify" viewBox="0 0 375 374.999991" height="500" preserveAspectRatio="xMidYMid meet" version="1.0"><rect x="-37.5" width="450" fill="#ffffff" y="-37.499999" height="449.999989" fill-opacity="1"/><rect x="-37.5" width="450" fill="#ffffff" y="-37.499999" height="449.999989" fill-opacity="1"/><path fill="#000000" d="M 323.492188 176.867188 C 316.484375 176.867188 301.910156 179.453125 294.65625 183.132812 L 288.820312 183.132812 C 287.792969 159.355469 278.527344 136.785156 262.429688 119.167969 C 262.359375 119.097656 262.324219 119.0625 262.253906 118.992188 L 266.355469 114.886719 C 274.105469 112.375 286.238281 103.886719 291.191406 98.933594 C 301.097656 89.027344 285.992188 73.992188 276.121094 83.863281 C 271.167969 88.816406 262.675781 100.949219 260.164062 108.695312 L 256.0625 112.800781 C 239.894531 97.941406 219.375 88.742188 197.40625 86.621094 C 195.601562 86.445312 193.761719 86.339844 191.921875 86.230469 L 191.921875 80.394531 C 195.601562 73.144531 198.183594 58.53125 198.183594 51.5625 C 198.183594 37.519531 176.886719 37.625 176.886719 51.5625 C 176.886719 58.566406 179.46875 73.144531 183.148438 80.394531 L 183.148438 86.230469 C 158.492188 87.292969 136.097656 97.199219 119.042969 112.835938 L 114.871094 108.660156 C 112.359375 100.914062 103.867188 88.78125 98.914062 83.828125 C 88.972656 73.921875 73.972656 89.027344 83.84375 98.898438 C 88.796875 103.851562 100.933594 112.339844 108.679688 114.851562 L 112.820312 118.992188 C 97.183594 136.042969 87.277344 158.4375 86.214844 183.09375 L 80.378906 183.09375 C 73.125 179.417969 58.550781 176.832031 51.542969 176.832031 C 37.5 176.832031 37.605469 198.132812 51.542969 198.132812 C 58.550781 198.132812 73.125 195.546875 80.378906 191.867188 L 86.214844 191.867188 C 87.277344 216.527344 97.183594 238.921875 112.820312 255.972656 L 108.679688 260.148438 C 100.933594 262.660156 88.796875 271.148438 83.84375 276.101562 C 73.902344 286.007812 89.042969 301.042969 98.914062 291.171875 C 103.867188 286.21875 112.359375 274.085938 114.871094 266.339844 L 119.007812 262.199219 C 136.0625 277.835938 158.457031 287.742188 183.113281 288.804688 L 183.113281 294.640625 C 179.433594 301.894531 176.851562 316.503906 176.851562 323.472656 C 176.851562 337.480469 198.148438 337.410156 198.148438 323.472656 C 198.148438 316.46875 195.566406 301.894531 191.886719 294.640625 L 191.886719 288.804688 C 216.542969 287.742188 238.9375 277.835938 255.992188 262.199219 L 260.128906 266.339844 C 262.640625 274.085938 271.132812 286.21875 276.085938 291.171875 C 285.992188 301.078125 301.027344 285.972656 291.15625 276.101562 C 286.203125 271.148438 274.070312 262.660156 266.320312 260.148438 L 262.144531 256.007812 C 277.78125 238.957031 287.6875 216.5625 288.75 191.90625 L 294.585938 191.90625 C 301.839844 195.582031 316.449219 198.167969 323.417969 198.167969 C 337.5 198.167969 337.429688 176.867188 323.492188 176.867188 Z M 247.109375 240.230469 L 217.253906 210.371094 C 221.179688 205.277344 223.832031 199.121094 224.71875 192.398438 L 266.957031 192.398438 C 265.859375 210.691406 258.539062 227.316406 247.109375 240.230469 Z M 108.042969 192.398438 L 150.28125 192.398438 C 151.167969 199.085938 153.785156 205.242188 157.746094 210.371094 L 127.890625 240.230469 C 116.460938 227.316406 109.140625 210.691406 108.042969 192.398438 Z M 127.890625 134.804688 L 157.746094 164.664062 C 153.820312 169.757812 151.167969 175.914062 150.28125 182.636719 L 108.042969 182.636719 C 109.140625 164.34375 116.460938 147.71875 127.890625 134.804688 Z M 212.832031 187.519531 C 212.832031 201.492188 201.472656 212.847656 187.5 212.847656 C 173.527344 212.847656 162.167969 201.492188 162.167969 187.519531 C 162.167969 173.542969 173.527344 162.1875 187.5 162.1875 C 201.472656 162.1875 212.832031 173.542969 212.832031 187.519531 Z M 182.617188 150.300781 C 175.929688 151.183594 169.777344 153.804688 164.644531 157.765625 L 134.789062 127.90625 C 147.699219 116.480469 164.328125 109.191406 182.617188 108.058594 Z M 164.644531 217.304688 C 169.742188 221.230469 175.894531 223.886719 182.617188 224.769531 L 182.617188 267.011719 C 164.328125 265.914062 147.699219 258.589844 134.789062 247.164062 Z M 192.382812 224.734375 C 199.070312 223.851562 205.222656 221.195312 210.355469 217.269531 L 240.210938 247.128906 C 227.300781 258.554688 210.671875 265.84375 192.382812 266.976562 Z M 266.957031 182.636719 L 224.71875 182.636719 C 223.832031 175.949219 221.179688 169.792969 217.253906 164.664062 L 247.144531 134.769531 C 258.960938 148.105469 265.894531 164.910156 266.957031 182.636719 Z M 240.246094 127.871094 L 210.355469 157.765625 C 205.257812 153.839844 199.105469 151.183594 192.382812 150.300781 L 192.382812 108.058594 C 193.335938 108.132812 194.292969 108.203125 195.28125 108.273438 C 212.015625 109.898438 227.722656 116.761719 240.246094 127.871094 Z M 240.246094 127.871094 " fill-opacity="1" fill-rule="nonzero"/></svg>